<?xml version="1.0" encoding="utf-8"?>
<svg version="1.1" xmlns:xlink="http://www.w3.org/1999/xlink" width="23px" height="23px" xmlns="http://www.w3.org/2000/svg">
  <g transform="matrix(1 0 0 1 2 -449 )">
    <path d="M 21.924929178470254 0  C 22.38101983002833 0  22.701369216241737 0.21235795454545547  22.885977337110482 0.6370738636363639  C 23.070585457979227 1.0835700757575735  22.994570349386215 1.4647253787878771  22.657932011331447 1.7805397727272723  L 14.627478753541075 9.83380681818182  L 14.627478753541075 21.954545454545457  C 14.627478753541075 22.41193181818182  14.4157223796034 22.73319128787879  13.992209631728047 22.918323863636363  C 13.851038715769596 22.97277462121212  13.71529745042493 23  13.584985835694052 23  C 13.291784702549574 23  13.04745042492918 22.896543560606062  12.851983002832862 22.68963068181818  L 8.682011331444759 18.5078125  C 8.475684608120869 18.30089962121212  8.372521246458923 18.05587121212121  8.372521246458923 17.772727272727273  L 8.372521246458923 9.83380681818182  L 0.34206798866855526 1.7805397727272723  C 0.005429650613786586 1.4647253787878771  -0.07058545797922569 1.0835700757575735  0.11402266288951841 0.6370738636363639  C 0.2986307837582625 0.21235795454545547  0.6189801699716714 0  1.075070821529745 0  L 21.924929178470254 0  Z " fill-rule="nonzero" fill="#000000" stroke="none" transform="matrix(1 0 0 1 -2 449 )" />
  </g>
</svg>