<?xml version="1.0" encoding="utf-8"?>
<svg version="1.1" xmlns:xlink="http://www.w3.org/1999/xlink" width="21px" height="23px" xmlns="http://www.w3.org/2000/svg">
  <g transform="matrix(1 0 0 1 -1083 -1445 )">
    <path d="M 11.885579064587974 19.330228365384617  C 11.959632516703786 19.24268830128205  11.996659242761691 19.134415064102562  11.996659242761691 19.005408653846153  L 11.996659242761691 16.379206730769234  C 11.996659242761691 16.25020032051282  11.959632516703786 16.141927083333332  11.885579064587974 16.054387019230766  C 11.811525612472161 15.966846955128206  11.723830734966594 15.923076923076923  11.62249443207127 15.923076923076923  L 9.377505567928731 15.923076923076923  C 9.276169265033408 15.923076923076923  9.18847438752784 15.966846955128206  9.114420935412026 16.054387019230766  C 9.040367483296214 16.141927083333332  9.003340757238307 16.25020032051282  9.003340757238307 16.379206730769234  L 9.003340757238307 19.005408653846153  C 9.003340757238307 19.134415064102562  9.040367483296214 19.24268830128205  9.114420935412026 19.330228365384617  C 9.18847438752784 19.41776842948718  9.276169265033408 19.46153846153846  9.377505567928731 19.46153846153846  L 11.62249443207127 19.46153846153846  C 11.723830734966594 19.46153846153846  11.811525612472161 19.41776842948718  11.885579064587974 19.330228365384617  Z M 11.850501113585745 14.064002403846155  C 11.92455456570156 14.00410657051282  11.965478841870825 13.928084935897436  11.97327394209354 13.8359375  L 12.183741648106905 7.491586538461538  C 12.183741648106905 7.381009615384616  12.14476614699332 7.293469551282049  12.066815144766148 7.228966346153845  C 11.965478841870826 7.127604166666665  11.87193763919822 7.0769230769230775  11.78619153674833 7.0769230769230775  L 9.21380846325167 7.0769230769230775  C 9.128062360801783 7.0769230769230775  9.034521158129177 7.127604166666665  8.933184855233852 7.228966346153845  C 8.855233853006682 7.293469551282049  8.816258351893095 7.390224358974356  8.816258351893095 7.519230769230768  L 9.015033407572382 13.8359375  C 9.015033407572382 13.928084935897436  9.054008908685969 14.00410657051282  9.13195991091314 14.064002403846155  C 9.209910913140313 14.123898237179485  9.303452115812918 14.153846153846155  9.412583518930957 14.153846153846155  L 11.575723830734965 14.153846153846155  C 11.684855233853007 14.153846153846155  11.776447661469932 14.123898237179485  11.850501113585745 14.064002403846155  Z M 11.260022271714922 0.24879807692307732  C 11.493875278396438 0.41466346153846134  11.677060133630292 0.6404246794871779  11.809576837416481 0.926081730769232  L 20.789532293986635 20.387620192307693  C 21.06236080178174 20.96814903846154  21.05456570155902 21.548677884615383  20.766146993318486 22.129206730769234  C 20.633630289532295 22.396434294871796  20.45239420935412 22.608373397435898  20.222438752783965 22.76502403846154  C 19.992483296213813 22.92167467948718  19.74498886414254 23  19.479955456570156 23  L 1.5200445434298442 23  C 1.2550111358574612 23  1.0075167037861916 22.92167467948718  0.7775612472160357 22.76502403846154  C 0.5476057906458798 22.608373397435898  0.36636971046770606 22.396434294871796  0.23385300668151449 22.129206730769234  C -0.054565701559020054 21.548677884615383  -0.06236080178173721 20.96814903846154  0.21046770601336304 20.387620192307693  L 9.190423162583519 0.926081730769232  C 9.322939866369712 0.6404246794871779  9.506124721603564 0.41466346153846134  9.739977728285078 0.24879807692307732  C 9.973830734966594 0.08293269230769329  10.227171492204901 0  10.5 0  C 10.7728285077951 0  11.026169265033408 0.08293269230769329  11.260022271714922 0.24879807692307732  Z " fill-rule="nonzero" fill="#000000" stroke="none" transform="matrix(1 0 0 1 1083 1445 )" />
  </g>
</svg>