<?xml version="1.0" encoding="utf-8"?>
<svg version="1.1" xmlns:xlink="http://www.w3.org/1999/xlink" width="17px" height="19px" xmlns="http://www.w3.org/2000/svg">
  <g transform="matrix(1 0 0 1 -1831 -457 )">
    <path d="M 16.205382436260624 0  C 16.542492917847024 0  16.779272898961285 0.17542613636363713  16.9157223796034 0.5262784090909093  C 17.052171860245515 0.8951231060606041  16.995986779981116 1.209990530303029  16.747167138810198 1.4708806818181814  L 10.811614730878187 8.123579545454547  L 10.811614730878187 18.136363636363637  C 10.811614730878187 18.514204545454547  10.655099150141643 18.779592803030305  10.342067988668557 18.93252840909091  C 10.237724268177526 18.97750946969697  10.137393767705383 19  10.041076487252125 19  C 9.824362606232295 19  9.643767705382437 18.914535984848488  9.49929178470255 18.743607954545453  L 6.4171388101983 15.2890625  C 6.264636449480642 15.118134469696969  6.188385269121813 14.915719696969695  6.188385269121813 14.681818181818182  L 6.188385269121813 8.123579545454547  L 0.2528328611898017 1.4708806818181814  C 0.004013220018885738 1.209990530303029  -0.052171860245514644 0.8951231060606041  0.08427762039660057 0.5262784090909093  C 0.2207271010387158 0.17542613636363713  0.4575070821529745 0  0.7946175637393768 0  L 16.205382436260624 0  Z " fill-rule="nonzero" fill="#000000" stroke="none" transform="matrix(1 0 0 1 1831 457 )" />
  </g>
</svg>