<?xml version="1.0" encoding="utf-8"?>
<svg version="1.1" xmlns:xlink="http://www.w3.org/1999/xlink" width="51px" height="45px" xmlns="http://www.w3.org/2000/svg">
  <g transform="matrix(1 0 0 1 -900 -23 )">
    <path d="M 925.5 23  C 939.78 23  951 32.9  951 45.5  C 951 58.1  939.78 68  925.5 68  C 911.22 68  900 58.1  900 45.5  C 900 32.9  911.22 23  925.5 23  Z " fill-rule="nonzero" fill="#ffffff" stroke="none" />
    <path d="M 925.5 23.5  C 939.5 23.5  950.5 33.18  950.5 45.5  C 950.5 57.82  939.5 67.5  925.5 67.5  C 911.5 67.5  900.5 57.82  900.5 45.5  C 900.5 33.18  911.5 23.5  925.5 23.5  Z " stroke-width="1" stroke="#444c64" fill="none" />
  </g>
</svg>