<?xml version="1.0" encoding="utf-8"?>
<svg version="1.1" xmlns:xlink="http://www.w3.org/1999/xlink" width="5px" height="15px" xmlns="http://www.w3.org/2000/svg">
  <g transform="matrix(1 0 0 1 -1066 -5023 )">
    <path d="M 4.835069444444445 0.2783203125  C 4.945023148148149 0.4638671874999978  5 0.6835937499999978  5 0.9375  L 5 14.0625  C 5 14.316406249999998  4.945023148148149 14.536132812499998  4.835069444444445 14.7216796875  C 4.725115740740741 14.907226562500002  4.594907407407407 15  4.444444444444445 15  C 4.293981481481482 15  4.163773148148149 14.907226562500002  4.053819444444445 14.7216796875  L 0.16493055555555555 8.1591796875  C 0.05497685185185193 7.973632812499999  0 7.753906249999999  0 7.5  C 0 7.246093749999999  0.05497685185185193 7.026367187499999  0.16493055555555555 6.8408203125  L 4.053819444444445 0.2783203125  C 4.163773148148149 0.09277343749999889  4.293981481481482 0  4.444444444444445 0  C 4.594907407407407 0  4.725115740740741 0.09277343749999889  4.835069444444445 0.2783203125  Z " fill-rule="nonzero" fill="#000000" stroke="none" transform="matrix(1 0 0 1 1066 5023 )" />
  </g>
</svg>