<?xml version="1.0" encoding="utf-8"?>
<svg version="1.1" xmlns:xlink="http://www.w3.org/1999/xlink" width="920px" height="536px" xmlns="http://www.w3.org/2000/svg">
  <g transform="matrix(1 0 0 1 -1461 -1397 )">
    <path d="M 1462 1401  A 3 3 0 0 1 1465 1398 L 2377 1398  A 3 3 0 0 1 2380 1401 L 2380 1929  A 3 3 0 0 1 2377 1932 L 1465 1932  A 3 3 0 0 1 1462 1929 L 1462 1401  Z " fill-rule="nonzero" fill="#ff3399" stroke="none" fill-opacity="0.09803921568627451" />
    <path d="M 1461.5 1401  A 3.5 3.5 0 0 1 1465 1397.5 L 2377 1397.5  A 3.5 3.5 0 0 1 2380.5 1401 L 2380.5 1929  A 3.5 3.5 0 0 1 2377 1932.5 L 1465 1932.5  A 3.5 3.5 0 0 1 1461.5 1929 L 1461.5 1401  Z " stroke-width="1" stroke-dasharray="9,4" stroke="#ff3399" fill="none" stroke-dashoffset="0.5" />
  </g>
</svg>