<?xml version="1.0" encoding="utf-8"?>
<svg version="1.1" xmlns:xlink="http://www.w3.org/1999/xlink" width="934px" height="153px" xmlns="http://www.w3.org/2000/svg">
  <g transform="matrix(1 0 0 1 -1463 -743 )">
    <path d="M 1464 747  A 3 3 0 0 1 1467 744 L 2393 744  A 3 3 0 0 1 2396 747 L 2396 892  A 3 3 0 0 1 2393 895 L 1467 895  A 3 3 0 0 1 1464 892 L 1464 747  Z " fill-rule="nonzero" fill="#ff3399" stroke="none" fill-opacity="0.09803921568627451" />
    <path d="M 1463.5 747  A 3.5 3.5 0 0 1 1467 743.5 L 2393 743.5  A 3.5 3.5 0 0 1 2396.5 747 L 2396.5 892  A 3.5 3.5 0 0 1 2393 895.5 L 1467 895.5  A 3.5 3.5 0 0 1 1463.5 892 L 1463.5 747  Z " stroke-width="1" stroke-dasharray="9,4" stroke="#ff3399" fill="none" stroke-dashoffset="0.5" />
  </g>
</svg>