<?xml version="1.0" encoding="utf-8"?>
<svg version="1.1" xmlns:xlink="http://www.w3.org/1999/xlink" width="13px" height="13px" viewBox="2705 3372  13 13" xmlns="http://www.w3.org/2000/svg">
  <path d="M 2711.5 3372  C 2715.14 3372  2718 3374.86  2718 3378.5  C 2718 3382.14  2715.14 3385  2711.5 3385  C 2707.86 3385  2705 3382.14  2705 3378.5  C 2705 3374.86  2707.86 3372  2711.5 3372  Z " fill-rule="nonzero" fill="#ffffff" stroke="none" />
  <path d="M 2711.5 3372.5  C 2714.86 3372.5  2717.5 3375.14  2717.5 3378.5  C 2717.5 3381.86  2714.86 3384.5  2711.5 3384.5  C 2708.14 3384.5  2705.5 3381.86  2705.5 3378.5  C 2705.5 3375.14  2708.14 3372.5  2711.5 3372.5  Z " stroke-width="1" stroke="#444c64" fill="none" />
  <path d="M 2711.5 3381.75  C 2709.68 3381.75  2708.25 3380.32  2708.25 3378.5  C 2708.25 3376.68  2709.68 3375.25  2711.5 3375.25  C 2713.32 3375.25  2714.75 3376.68  2714.75 3378.5  C 2714.75 3380.32  2713.32 3381.75  2711.5 3381.75  " fill-rule="nonzero" fill="#444c64" stroke="none" />
</svg>