<?xml version="1.0" encoding="utf-8"?>
<svg version="1.1" xmlns:xlink="http://www.w3.org/1999/xlink" width="13px" height="13px" viewBox="2079 3370  13 13" xmlns="http://www.w3.org/2000/svg">
  <path d="M 2085.5 3370  C 2089.14 3370  2092 3372.86  2092 3376.5  C 2092 3380.14  2089.14 3383  2085.5 3383  C 2081.86 3383  2079 3380.14  2079 3376.5  C 2079 3372.86  2081.86 3370  2085.5 3370  Z " fill-rule="nonzero" fill="#ffffff" stroke="none" />
  <path d="M 2085.5 3370.5  C 2088.86 3370.5  2091.5 3373.14  2091.5 3376.5  C 2091.5 3379.86  2088.86 3382.5  2085.5 3382.5  C 2082.14 3382.5  2079.5 3379.86  2079.5 3376.5  C 2079.5 3373.14  2082.14 3370.5  2085.5 3370.5  Z " stroke-width="1" stroke="#444c64" fill="none" />
  <path d="M 2085.5 3379.75  C 2083.68 3379.75  2082.25 3378.32  2082.25 3376.5  C 2082.25 3374.68  2083.68 3373.25  2085.5 3373.25  C 2087.32 3373.25  2088.75 3374.68  2088.75 3376.5  C 2088.75 3378.32  2087.32 3379.75  2085.5 3379.75  " fill-rule="nonzero" fill="#444c64" stroke="none" />
</svg>