<?xml version="1.0" encoding="utf-8"?>
<svg version="1.1" xmlns:xlink="http://www.w3.org/1999/xlink" width="1786px" height="516px" xmlns="http://www.w3.org/2000/svg">
  <g transform="matrix(1 0 0 1 -1463 -3141 )">
    <path d="M 1464 3145  A 3 3 0 0 1 1467 3142 L 3245 3142  A 3 3 0 0 1 3248 3145 L 3248 3653  A 3 3 0 0 1 3245 3656 L 1467 3656  A 3 3 0 0 1 1464 3653 L 1464 3145  Z " fill-rule="nonzero" fill="#ff3399" stroke="none" fill-opacity="0.09803921568627451" />
    <path d="M 1463.5 3145  A 3.5 3.5 0 0 1 1467 3141.5 L 3245 3141.5  A 3.5 3.5 0 0 1 3248.5 3145 L 3248.5 3653  A 3.5 3.5 0 0 1 3245 3656.5 L 1467 3656.5  A 3.5 3.5 0 0 1 1463.5 3653 L 1463.5 3145  Z " stroke-width="1" stroke-dasharray="9,4" stroke="#ff3399" fill="none" stroke-dashoffset="0.5" />
  </g>
</svg>