<?xml version="1.0" encoding="utf-8"?>
<svg version="1.1" xmlns:xlink="http://www.w3.org/1999/xlink" width="272px" height="107px" xmlns="http://www.w3.org/2000/svg">
  <g transform="matrix(1 0 0 1 -269 -536 )">
    <path d="M 270 542  A 5 5 0 0 1 275 537 L 535 537  A 5 5 0 0 1 540 542 L 540 637  A 5 5 0 0 1 535 642 L 275 642  A 5 5 0 0 1 270 637 L 270 542  Z " fill-rule="nonzero" fill="#000000" stroke="none" fill-opacity="0.0196078431372549" />
    <path d="M 269.5 542  A 5.5 5.5 0 0 1 275 536.5 L 535 536.5  A 5.5 5.5 0 0 1 540.5 542 L 540.5 637  A 5.5 5.5 0 0 1 535 642.5 L 275 642.5  A 5.5 5.5 0 0 1 269.5 637 L 269.5 542  Z " stroke-width="1" stroke-dasharray="9,4" stroke="#108ee9" fill="none" stroke-dashoffset="0.5" />
  </g>
</svg>