<?xml version="1.0" encoding="utf-8"?>
<svg version="1.1" xmlns:xlink="http://www.w3.org/1999/xlink" width="18px" height="18px" xmlns="http://www.w3.org/2000/svg">
  <g transform="matrix(1 0 0 1 -12 -7 )">
    <path d="M 9.000017857142836 0.13710714285713266  C 4.096678571428576 0.13710714285713266  0.12178571428573193 4.112017857142867  0.12178571428573193 9.015357142857127  C 0.12178571428573193 13.918696428571437  4.096678571428576 17.893571428571445  9 17.893571428571445  C 13.903321428571424 17.893571428571445  17.878214285714268 13.918696428571437  17.878214285714268 9.015357142857127  C 17.878214285714268 4.112017857142867  13.903374999999983 0.13710714285713266  9.000035714285723 0.13710714285713266  Z M 10.15100000000001 9.015357142857127  L 12.807357142857157 11.67169642857143  C 13.125178571428549 11.989607142857167  13.125178571428549 12.504857142857155  12.807357142857157 12.82269642857144  C 12.489535714285708 13.140500000000003  11.974178571428595 13.140500000000003  11.656357142857146 12.82269642857144  L 9.000017857142836 10.166339285714301  L 6.343589285714295 12.822678571428554  C 6.025750000000009 13.140482142857167  5.510517857142855 13.140482142857167  5.192696428571406 12.822678571428554  C 4.874767857142835 12.504839285714269  4.874767857142835 11.989589285714274  5.192696428571406 11.671678571428593  L 7.849017857142876 9.015357142857127  L 5.192678571428569 6.3589999999999804  C 4.874767857142835 6.041178571428581  4.874767857142835 5.525839285714305  5.192678571428569 5.208017857142856  C 5.510517857142855 4.890196428571436  6.025750000000009 4.890196428571436  6.343571428571408 5.208017857142856  L 9.000017857142836 7.864357142857166  L 11.656357142857146 5.208017857142856  C 11.974178571428595 4.890196428571436  12.489535714285708 4.890196428571436  12.807357142857157 5.208017857142856  C 13.125178571428549 5.525839285714305  13.125178571428549 6.041178571428581  12.807357142857157 6.3589999999999804  L 10.15100000000001 9.015357142857127  Z " fill-rule="nonzero" fill="#ffffff" stroke="none" fill-opacity="0" transform="matrix(1 0 0 1 12 7 )" />
  </g>
</svg>