<?xml version="1.0" encoding="utf-8"?>
<svg version="1.1" xmlns:xlink="http://www.w3.org/1999/xlink" width="46px" height="46px" xmlns="http://www.w3.org/2000/svg">
  <g transform="matrix(1 0 0 1 -1047 -63 )">
    <path d="M 1070 63  C 1082.88 63  1093 73.12  1093 86  C 1093 98.88  1082.88 109  1070 109  C 1057.12 109  1047 98.88  1047 86  C 1047 73.12  1057.12 63  1070 63  Z " fill-rule="nonzero" fill="#ffffff" stroke="none" />
    <path d="M 1070 63.5  C 1082.6 63.5  1092.5 73.4  1092.5 86  C 1092.5 98.6  1082.6 108.5  1070 108.5  C 1057.4 108.5  1047.5 98.6  1047.5 86  C 1047.5 73.4  1057.4 63.5  1070 63.5  Z " stroke-width="1" stroke="#444c64" fill="none" />
  </g>
</svg>