<?xml version="1.0" encoding="utf-8"?>
<svg version="1.1" xmlns:xlink="http://www.w3.org/1999/xlink" width="16px" height="17px" xmlns="http://www.w3.org/2000/svg">
  <g transform="matrix(1 0 0 1 -1062 -79 )">
    <path d="M 9.8125 10.42578125  C 10.655448717948719 9.530148237179485  11.076923076923077 8.452323717948717  11.076923076923077 7.192307692307693  C 11.076923076923077 5.932291666666665  10.655448717948719 4.854467147435896  9.8125 3.9588341346153846  C 8.969551282051283 3.0632011217948705  7.955128205128205 2.6153846153846154  6.769230769230769 2.6153846153846154  C 5.583333333333334 2.6153846153846154  4.568910256410257 3.0632011217948705  3.7259615384615383 3.9588341346153846  C 2.8830128205128207 4.854467147435896  2.4615384615384617 5.932291666666665  2.4615384615384617 7.192307692307693  C 2.4615384615384617 8.452323717948717  2.8830128205128207 9.530148237179485  3.7259615384615383 10.42578125  C 4.568910256410257 11.321414262820511  5.583333333333334 11.769230769230768  6.769230769230769 11.769230769230768  C 7.955128205128205 11.769230769230768  8.969551282051283 11.321414262820511  9.8125 10.42578125  Z M 15.64423076923077 14.772836538461538  C 15.881410256410257 15.024839743589745  16 15.33133012820513  16 15.692307692307693  C 16 16.04647435897436  15.87820512820513 16.352964743589745  15.634615384615385 16.611778846153847  C 15.391025641025642 16.87059294871795  15.102564102564104 17  14.76923076923077 17  C 14.423076923076923 17  14.134615384615385 16.87059294871795  13.903846153846153 16.611778846153847  L 10.60576923076923 13.117788461538462  C 9.458333333333334 13.962339743589745  8.17948717948718 14.384615384615385  6.769230769230769 14.384615384615385  C 5.852564102564103 14.384615384615385  4.975961538461538 14.195612980769232  4.139423076923077 13.817608173076923  C 3.3028846153846154 13.439603365384615  2.581730769230769 12.928786057692307  1.9759615384615385 12.28515625  C 1.3701923076923077 11.641526442307693  0.8894230769230771 10.875300480769232  0.5336538461538461 9.986478365384615  C 0.1778846153846154 9.09765625  0 8.166266025641024  0 7.192307692307693  C 0 6.218349358974357  0.1778846153846154 5.286959134615384  0.5336538461538461 4.398137019230769  C 0.8894230769230771 3.5093149038461533  1.3701923076923077 2.7430889423076934  1.9759615384615385 2.0994591346153846  C 2.581730769230769 1.4558293269230775  3.3028846153846154 0.9450120192307689  4.139423076923077 0.5670072115384621  C 4.975961538461538 0.1890024038461534  5.852564102564103 0  6.769230769230769 0  C 7.685897435897436 0  8.5625 0.1890024038461534  9.399038461538462 0.5670072115384621  C 10.235576923076923 0.9450120192307689  10.95673076923077 1.4558293269230775  11.5625 2.0994591346153846  C 12.16826923076923 2.7430889423076934  12.649038461538462 3.5093149038461533  13.004807692307692 4.398137019230769  C 13.360576923076923 5.286959134615384  13.538461538461538 6.218349358974357  13.538461538461538 7.192307692307693  C 13.538461538461538 8.690705128205128  13.141025641025642 10.049479166666666  12.346153846153847 11.268629807692307  L 15.64423076923077 14.772836538461538  Z " fill-rule="nonzero" fill="#000000" stroke="none" transform="matrix(1 0 0 1 1062 79 )" />
  </g>
</svg>