<?xml version="1.0" encoding="utf-8"?>
<svg version="1.1" xmlns:xlink="http://www.w3.org/1999/xlink" width="15px" height="16px" xmlns="http://www.w3.org/2000/svg">
  <g transform="matrix(1 0 0 1 -998 -78 )">
    <path d="M 14.619140625 0.71875  C 14.873046875 0.8368055555555554  15 1.041666666666666  15 1.333333333333334  L 15 6  C 15 6.180555555555555  14.938151041666666 6.336805555555555  14.814453125 6.46875  C 14.690755208333336 6.600694444444445  14.544270833333336 6.666666666666666  14.375 6.666666666666666  L 10 6.666666666666666  C 9.7265625 6.666666666666666  9.534505208333334 6.527777777777779  9.423828125 6.25  C 9.313151041666668 5.979166666666666  9.358723958333336 5.739583333333334  9.560546875 5.53125  L 10.908203125 4.09375  C 9.944661458333336 3.142361111111109  8.80859375 2.666666666666666  7.5 2.666666666666666  C 6.822916666666668 2.666666666666666  6.1767578125 2.807291666666666  5.5615234375 3.088541666666666  C 4.9462890625 3.369791666666666  4.4140625 3.75  3.9648437500000004 4.229166666666666  C 3.515625 4.708333333333334  3.1591796875 5.276041666666666  2.8955078125 5.932291666666666  C 2.6318359375 6.588541666666666  2.5 7.277777777777777  2.5 8  C 2.5 8.722222222222221  2.6318359375 9.411458333333332  2.8955078125 10.067708333333332  C 3.1591796875 10.723958333333332  3.515625 11.291666666666668  3.9648437500000004 11.770833333333332  C 4.4140625 12.25  4.9462890625 12.630208333333334  5.5615234375 12.911458333333334  C 6.1767578125 13.192708333333334  6.822916666666668 13.333333333333334  7.5 13.333333333333334  C 8.274739583333334 13.333333333333334  9.007161458333334 13.152777777777779  9.697265625 12.791666666666666  C 10.387369791666668 12.430555555555555  10.970052083333336 11.92013888888889  11.4453125 11.260416666666668  C 11.490885416666666 11.190972222222221  11.565755208333336 11.149305555555554  11.669921875 11.135416666666668  C 11.767578125 11.135416666666668  11.848958333333336 11.166666666666668  11.9140625 11.229166666666668  L 13.251953125 12.666666666666666  C 13.310546875 12.722222222222221  13.341471354166668 12.793402777777779  13.3447265625 12.880208333333334  C 13.347981770833334 12.967013888888888  13.323567708333336 13.045138888888888  13.271484375 13.114583333333334  C 12.561848958333336 14.03125  11.702473958333336 14.741319444444445  10.693359375 15.244791666666666  C 9.684244791666668 15.748263888888888  8.619791666666666 16  7.5 16  C 6.484375 16  5.514322916666668 15.788194444444445  4.58984375 15.364583333333334  C 3.665364583333334 14.940972222222221  2.867838541666667 14.371527777777779  2.197265625 13.65625  C 1.5266927083333335 12.940972222222221  0.9928385416666667 12.090277777777779  0.5957031250000001 11.104166666666668  C 0.19856770833333337 10.118055555555554  0 9.083333333333332  0 8  C 0 6.916666666666666  0.19856770833333337 5.881944444444445  0.5957031250000001 4.895833333333334  C 0.9928385416666667 3.9097222222222214  1.5266927083333335 3.059027777777777  2.197265625 2.34375  C 2.867838541666667 1.6284722222222214  3.665364583333334 1.0590277777777768  4.58984375 0.6354166666666661  C 5.514322916666668 0.21180555555555536  6.484375 0  7.5 0  C 8.45703125 0  9.383138020833336 0.19270833333333393  10.2783203125 0.578125  C 11.173502604166668 0.9635416666666661  11.969401041666668 1.5069444444444429  12.666015625 2.208333333333334  L 13.935546875 0.8645833333333339  C 14.124348958333334 0.6493055555555554  14.352213541666668 0.6006944444444429  14.619140625 0.71875  Z " fill-rule="nonzero" fill="#000000" stroke="none" transform="matrix(1 0 0 1 998 78 )" />
  </g>
</svg>