<?xml version="1.0" encoding="utf-8"?>
<svg version="1.1" xmlns:xlink="http://www.w3.org/1999/xlink" width="6px" height="9px" xmlns="http://www.w3.org/2000/svg">
  <g transform="matrix(1 0 0 1 -1034 -587 )">
    <path d="M 5.896907216494845 0.5410821643286569  C 5.965635738831616 0.6012024048096182  6 0.6703406813627243  6 0.7484969939879762  C 6 0.8266533066132261  5.965635738831616 0.8957915831663322  5.896907216494845 0.9559118236472945  L 1.8453608247422681 4.5  L 5.896907216494845 8.044088176352705  C 5.965635738831616 8.104208416833668  6 8.173346693386772  6 8.251503006012024  C 6 8.329659318637274  5.965635738831616 8.39879759519038  5.896907216494845 8.458917835671343  L 5.381443298969073 8.909819639278558  C 5.312714776632303 8.969939879759519  5.233676975945018 9  5.144329896907216 9  C 5.0549828178694165 9  4.975945017182132 8.969939879759519  4.907216494845361 8.909819639278558  L 0.10309278350515465 4.707414829659318  C 0.0343642611683849 4.647294589178356  0 4.57815631262525  0 4.5  C 0 4.421843687374749  0.0343642611683849 4.352705410821643  0.10309278350515465 4.292585170340682  L 4.907216494845361 0.09018036072144298  C 4.975945017182132 0.03006012024048066  5.0549828178694165 0  5.144329896907216 0  C 5.233676975945018 0  5.312714776632303 0.03006012024048066  5.381443298969073 0.09018036072144298  L 5.896907216494845 0.5410821643286569  Z " fill-rule="nonzero" fill="#000000" stroke="none" transform="matrix(1 0 0 1 1034 587 )" />
  </g>
</svg>