<?xml version="1.0" encoding="utf-8"?>
<svg version="1.1" xmlns:xlink="http://www.w3.org/1999/xlink" width="13px" height="15px" xmlns="http://www.w3.org/2000/svg">
  <g transform="matrix(1 0 0 1 -949 -2387 )">
    <path d="M 9.783854166666666 0.569196428571429  L 12.424479166666666 3.180803571428571  C 12.582465277777779 3.3370535714285703  12.717881944444445 3.5491071428571437  12.830729166666666 3.8169642857142856  C 12.94357638888889 4.084821428571429  13 4.330357142857142  13 4.553571428571429  L 13 14.196428571428571  C 13 14.419642857142858  12.921006944444443 14.609374999999998  12.763020833333334 14.765625  C 12.605034722222223 14.921875000000002  12.413194444444445 15  12.1875 15  L 0.8125 15  C 0.5868055555555556 15  0.3949652777777778 14.921875000000002  0.23697916666666669 14.765625  C 0.07899305555555555 14.609374999999998  0 14.419642857142858  0 14.196428571428571  L 0 0.803571428571429  C 0 0.5803571428571425  0.07899305555555555 0.39062499999999944  0.23697916666666669 0.234375  C 0.3949652777777778 0.07812500000000056  0.5868055555555556 0  0.8125 0  L 8.395833333333334 0  C 8.621527777777779 0  8.869791666666666 0.05580357142857206  9.140625 0.16741071428571452  C 9.411458333333334 0.279017857142857  9.625868055555557 0.41294642857142794  9.783854166666666 0.569196428571429  Z M 9.013671875 1.3225446428571437  C 8.945963541666666 1.2555803571428563  8.83029513888889 1.1941964285714268  8.666666666666666 1.1383928571428563  L 8.666666666666666 4.285714285714286  L 11.848958333333334 4.285714285714286  C 11.792534722222223 4.123883928571427  11.73046875 4.009486607142857  11.662760416666666 3.942522321428571  L 9.013671875 1.3225446428571437  Z M 1 14  L 11.916666666666666 14  L 11.916666666666666 5.357142857142857  L 8.395833333333334 5.357142857142857  C 8.17013888888889 5.357142857142857  7.978298611111112 5.279017857142856  7.8203125 5.122767857142857  C 7.662326388888888 4.966517857142857  7.583333333333334 4.776785714285713  7.583333333333334 4.553571428571429  L 7.583333333333334 1.071428571428571  L 1 1.071428571428571  L 1 14  Z M 4.206380208333333 11.969866071428571  L 3.630859375 11.969866071428571  L 3.630859375 12.857142857142858  L 6.009114583333333 12.857142857142858  L 6.009114583333333 11.969866071428571  L 5.374348958333333 11.969866071428571  L 6.24609375 10.622209821428571  C 6.274305555555555 10.58314732142857  6.302517361111112 10.537109374999998  6.330729166666667 10.484095982142858  C 6.358940972222222 10.431082589285714  6.380099826388889 10.393415178571427  6.394205729166667 10.37109375  C 6.408311631944445 10.34877232142857  6.418185763888889 10.337611607142858  6.423828125 10.337611607142858  L 6.440755208333333 10.337611607142858  C 6.446397569444445 10.359933035714285  6.460503472222222 10.387834821428571  6.483072916666667 10.421316964285715  C 6.494357638888888 10.44363839285714  6.507052951388888 10.464564732142856  6.521158854166666 10.484095982142858  C 6.535264756944445 10.503627232142858  6.552191840277779 10.525948660714285  6.571940104166666 10.551060267857142  C 6.591688368055556 10.576171875  6.610026041666668 10.599888392857142  6.626953125 10.622209821428571  L 7.532552083333334 11.969866071428571  L 6.889322916666666 11.969866071428571  L 6.889322916666666 12.857142857142858  L 9.352213541666666 12.857142857142858  L 9.352213541666666 11.969866071428571  L 8.776692708333334 11.969866071428571  L 7.151692708333334 9.684709821428571  L 8.802083333333334 7.32421875  L 9.369140625 7.32421875  L 9.369140625 6.428571428571429  L 7.0078125 6.428571428571429  L 7.0078125 7.32421875  L 7.634114583333334 7.32421875  L 6.762369791666666 8.655133928571429  C 6.739800347222224 8.694196428571429  6.711588541666668 8.740234375  6.677734375 8.793247767857142  C 6.643880208333334 8.846261160714286  6.618489583333334 8.88392857142857  6.6015625 8.90625  L 6.584635416666666 8.931361607142858  L 6.567708333333334 8.931361607142858  C 6.562065972222222 8.909040178571427  6.547960069444445 8.881138392857142  6.525390625 8.84765625  C 6.491536458333333 8.786272321428573  6.443576388888889 8.722098214285715  6.381510416666667 8.655133928571429  L 5.484375 7.32421875  L 6.127604166666667 7.32421875  L 6.127604166666667 6.428571428571429  L 3.673177083333333 6.428571428571429  L 3.673177083333333 7.32421875  L 4.248697916666667 7.32421875  L 5.848307291666667 9.601004464285715  L 4.206380208333333 11.969866071428571  Z " fill-rule="nonzero" fill="#31c63d" stroke="none" transform="matrix(1 0 0 1 949 2387 )" />
  </g>
</svg>