<?xml version="1.0" encoding="utf-8"?>
<svg version="1.1" xmlns:xlink="http://www.w3.org/1999/xlink" width="1767px" height="216px" xmlns="http://www.w3.org/2000/svg">
  <g transform="matrix(1 0 0 1 -1528 -3316 )">
    <path d="M 1529 3320  A 3 3 0 0 1 1532 3317 L 3291 3317  A 3 3 0 0 1 3294 3320 L 3294 3528  A 3 3 0 0 1 3291 3531 L 1532 3531  A 3 3 0 0 1 1529 3528 L 1529 3320  Z " fill-rule="nonzero" fill="#ff3399" stroke="none" fill-opacity="0.09803921568627451" />
    <path d="M 1528.5 3320  A 3.5 3.5 0 0 1 1532 3316.5 L 3291 3316.5  A 3.5 3.5 0 0 1 3294.5 3320 L 3294.5 3528  A 3.5 3.5 0 0 1 3291 3531.5 L 1532 3531.5  A 3.5 3.5 0 0 1 1528.5 3528 L 1528.5 3320  Z " stroke-width="1" stroke-dasharray="9,4" stroke="#ff3399" fill="none" stroke-dashoffset="0.5" />
  </g>
</svg>