<?xml version="1.0" encoding="utf-8"?>
<svg version="1.1" xmlns:xlink="http://www.w3.org/1999/xlink" width="1160px" height="96px" xmlns="http://www.w3.org/2000/svg">
  <g transform="matrix(1 0 0 1 -1513 -1170 )">
    <path d="M 1514 1174  A 3 3 0 0 1 1517 1171 L 2669 1171  A 3 3 0 0 1 2672 1174 L 2672 1262  A 3 3 0 0 1 2669 1265 L 1517 1265  A 3 3 0 0 1 1514 1262 L 1514 1174  Z " fill-rule="nonzero" fill="#ff3399" stroke="none" fill-opacity="0.09803921568627451" />
    <path d="M 1513.5 1174  A 3.5 3.5 0 0 1 1517 1170.5 L 2669 1170.5  A 3.5 3.5 0 0 1 2672.5 1174 L 2672.5 1262  A 3.5 3.5 0 0 1 2669 1265.5 L 1517 1265.5  A 3.5 3.5 0 0 1 1513.5 1262 L 1513.5 1174  Z " stroke-width="1" stroke-dasharray="9,4" stroke="#ff3399" fill="none" stroke-dashoffset="0.5" />
  </g>
</svg>