<?xml version="1.0" encoding="utf-8"?>
<svg version="1.1" xmlns:xlink="http://www.w3.org/1999/xlink" width="105px" height="143px" xmlns="http://www.w3.org/2000/svg">
  <g transform="matrix(1 0 0 1 -1406 -5398 )">
    <path d="M 1407 5402  A 3 3 0 0 1 1410 5399 L 1507 5399  A 3 3 0 0 1 1510 5402 L 1510 5537  A 3 3 0 0 1 1507 5540 L 1410 5540  A 3 3 0 0 1 1407 5537 L 1407 5402  Z " fill-rule="nonzero" fill="#ff3399" stroke="none" fill-opacity="0.09803921568627451" />
    <path d="M 1406.5 5402  A 3.5 3.5 0 0 1 1410 5398.5 L 1507 5398.5  A 3.5 3.5 0 0 1 1510.5 5402 L 1510.5 5537  A 3.5 3.5 0 0 1 1507 5540.5 L 1410 5540.5  A 3.5 3.5 0 0 1 1406.5 5537 L 1406.5 5402  Z " stroke-width="1" stroke-dasharray="9,4" stroke="#ff3399" fill="none" stroke-dashoffset="0.5" />
  </g>
</svg>