<?xml version="1.0" encoding="utf-8"?>
<svg version="1.1" xmlns:xlink="http://www.w3.org/1999/xlink" width="534px" height="24px" xmlns="http://www.w3.org/2000/svg">
  <g transform="matrix(1 0 0 1 -1511 -5874 )">
    <path d="M 1512 5878  A 3 3 0 0 1 1515 5875 L 2041 5875  A 3 3 0 0 1 2044 5878 L 2044 5894  A 3 3 0 0 1 2041 5897 L 1515 5897  A 3 3 0 0 1 1512 5894 L 1512 5878  Z " fill-rule="nonzero" fill="#ff3399" stroke="none" fill-opacity="0.09803921568627451" />
    <path d="M 1511.5 5878  A 3.5 3.5 0 0 1 1515 5874.5 L 2041 5874.5  A 3.5 3.5 0 0 1 2044.5 5878 L 2044.5 5894  A 3.5 3.5 0 0 1 2041 5897.5 L 1515 5897.5  A 3.5 3.5 0 0 1 1511.5 5894 L 1511.5 5878  Z " stroke-width="1" stroke-dasharray="9,4" stroke="#ff3399" fill="none" stroke-dashoffset="0.5" />
  </g>
</svg>