<?xml version="1.0" encoding="utf-8"?>
<svg version="1.1" xmlns:xlink="http://www.w3.org/1999/xlink" width="122px" height="60px" xmlns="http://www.w3.org/2000/svg">
  <g transform="matrix(1 0 0 1 -1909 -5658 )">
    <path d="M 1910 5662  A 3 3 0 0 1 1913 5659 L 2027 5659  A 3 3 0 0 1 2030 5662 L 2030 5714  A 3 3 0 0 1 2027 5717 L 1913 5717  A 3 3 0 0 1 1910 5714 L 1910 5662  Z " fill-rule="nonzero" fill="#ff3399" stroke="none" fill-opacity="0.09803921568627451" />
    <path d="M 1909.5 5662  A 3.5 3.5 0 0 1 1913 5658.5 L 2027 5658.5  A 3.5 3.5 0 0 1 2030.5 5662 L 2030.5 5714  A 3.5 3.5 0 0 1 2027 5717.5 L 1913 5717.5  A 3.5 3.5 0 0 1 1909.5 5714 L 1909.5 5662  Z " stroke-width="1" stroke-dasharray="9,4" stroke="#ff3399" fill="none" stroke-dashoffset="0.5" />
  </g>
</svg>