<?xml version="1.0" encoding="utf-8"?>
<svg version="1.1" xmlns:xlink="http://www.w3.org/1999/xlink" width="737px" height="23px" xmlns="http://www.w3.org/2000/svg">
  <g transform="matrix(1 0 0 1 -1539 -424 )">
    <path d="M 1540 428  A 3 3 0 0 1 1543 425 L 2272 425  A 3 3 0 0 1 2275 428 L 2275 443  A 3 3 0 0 1 2272 446 L 1543 446  A 3 3 0 0 1 1540 443 L 1540 428  Z " fill-rule="nonzero" fill="#ff3399" stroke="none" fill-opacity="0.09803921568627451" />
    <path d="M 1539.5 428  A 3.5 3.5 0 0 1 1543 424.5 L 2272 424.5  A 3.5 3.5 0 0 1 2275.5 428 L 2275.5 443  A 3.5 3.5 0 0 1 2272 446.5 L 1543 446.5  A 3.5 3.5 0 0 1 1539.5 443 L 1539.5 428  Z " stroke-width="1" stroke-dasharray="9,4" stroke="#ff3399" fill="none" stroke-dashoffset="0.5" />
  </g>
</svg>