<?xml version="1.0" encoding="utf-8"?>
<svg version="1.1" xmlns:xlink="http://www.w3.org/1999/xlink" width="1296px" height="57px" xmlns="http://www.w3.org/2000/svg">
  <g transform="matrix(1 0 0 1 -1539 -2389 )">
    <path d="M 1540 2393  A 3 3 0 0 1 1543 2390 L 2831 2390  A 3 3 0 0 1 2834 2393 L 2834 2442  A 3 3 0 0 1 2831 2445 L 1543 2445  A 3 3 0 0 1 1540 2442 L 1540 2393  Z " fill-rule="nonzero" fill="#ff3399" stroke="none" fill-opacity="0.09803921568627451" />
    <path d="M 1539.5 2393  A 3.5 3.5 0 0 1 1543 2389.5 L 2831 2389.5  A 3.5 3.5 0 0 1 2834.5 2393 L 2834.5 2442  A 3.5 3.5 0 0 1 2831 2445.5 L 1543 2445.5  A 3.5 3.5 0 0 1 1539.5 2442 L 1539.5 2393  Z " stroke-width="1" stroke-dasharray="9,4" stroke="#ff3399" fill="none" stroke-dashoffset="0.5" />
  </g>
</svg>