<?xml version="1.0" encoding="utf-8"?>
<svg version="1.1" xmlns:xlink="http://www.w3.org/1999/xlink" width="16px" height="16px" xmlns="http://www.w3.org/2000/svg">
  <g transform="matrix(1 0 0 1 -269 -14 )">
    <path d="M 11.770833333333334 10.833333333333332  C 11.902777777777779 10.70138888888889  11.96875 10.541666666666668  11.96875 10.354166666666668  C 11.96875 10.17361111111111  11.902777777777779 10.01736111111111  11.770833333333334 9.885416666666668  L 9.885416666666666 8  L 11.770833333333334 6.114583333333334  C 11.902777777777779 5.9826388888888875  11.96875 5.8263888888888875  11.96875 5.645833333333334  C 11.96875 5.458333333333334  11.902777777777779 5.298611111111109  11.770833333333334 5.166666666666666  L 10.833333333333334 4.229166666666666  C 10.701388888888891 4.097222222222221  10.541666666666666 4.03125  10.354166666666666 4.03125  C 10.173611111111112 4.03125  10.017361111111112 4.097222222222221  9.885416666666666 4.229166666666666  L 8 6.114583333333334  L 6.114583333333333 4.229166666666666  C 5.982638888888889 4.097222222222221  5.826388888888889 4.03125  5.645833333333333 4.03125  C 5.458333333333333 4.03125  5.298611111111112 4.097222222222221  5.166666666666667 4.229166666666666  L 4.229166666666667 5.166666666666666  C 4.097222222222222 5.298611111111109  4.031250000000001 5.458333333333334  4.03125 5.645833333333334  C 4.031250000000001 5.8263888888888875  4.097222222222222 5.9826388888888875  4.229166666666667 6.114583333333334  L 6.114583333333333 8  L 4.229166666666667 9.885416666666668  C 4.097222222222222 10.01736111111111  4.031250000000001 10.17361111111111  4.03125 10.354166666666668  C 4.031250000000001 10.541666666666668  4.097222222222222 10.70138888888889  4.229166666666667 10.833333333333332  L 5.166666666666667 11.770833333333332  C 5.298611111111112 11.902777777777779  5.458333333333333 11.96875  5.645833333333333 11.96875  C 5.826388888888889 11.96875  5.982638888888889 11.902777777777779  6.114583333333333 11.770833333333332  L 8 9.885416666666668  L 9.885416666666666 11.770833333333332  C 10.017361111111112 11.902777777777779  10.173611111111112 11.96875  10.354166666666666 11.96875  C 10.541666666666666 11.96875  10.701388888888891 11.902777777777779  10.833333333333334 11.770833333333332  L 11.770833333333334 10.833333333333332  Z M 14.927083333333334 3.984375  C 15.642361111111109 5.210069444444443  16 6.548611111111109  16 8  C 16 9.45138888888889  15.642361111111109 10.789930555555555  14.927083333333334 12.015625  C 14.211805555555557 13.241319444444445  13.241319444444445 14.211805555555555  12.015625 14.927083333333334  C 10.789930555555557 15.64236111111111  9.45138888888889 16  8 16  C 6.548611111111112 16  5.210069444444445 15.64236111111111  3.984375 14.927083333333334  C 2.758680555555556 14.211805555555555  1.7881944444444446 13.241319444444445  1.0729166666666667 12.015625  C 0.35763888888888884 10.789930555555555  0 9.45138888888889  0 8  C 0 6.548611111111109  0.35763888888888884 5.210069444444443  1.0729166666666667 3.984375  C 1.7881944444444446 2.7586805555555554  2.758680555555556 1.7881944444444429  3.984375 1.072916666666666  C 5.210069444444445 0.3576388888888875  6.548611111111112 0  8 0  C 9.45138888888889 0  10.789930555555557 0.3576388888888875  12.015625 1.072916666666666  C 13.241319444444445 1.7881944444444429  14.211805555555557 2.7586805555555554  14.927083333333334 3.984375  Z " fill-rule="nonzero" fill="#aaaaaa" stroke="none" transform="matrix(1 0 0 1 269 14 )" />
  </g>
</svg>